<svg width="18" height="21" viewBox="0 0 18 21" fill="none" xmlns="http://www.w3.org/2000/svg">
<path d="M17.9789 3H12.75V0.75C12.75 0.551088 12.671 0.360322 12.5303 0.21967C12.3897 0.0790176 12.1989 0 12 0H6C5.80109 0 5.61032 0.0790176 5.46967 0.21967C5.32902 0.360322 5.25 0.551088 5.25 0.75V3H0.0210936L0 4.875H1.54688L2.48859 19.5938C2.51243 19.9744 2.68035 20.3316 2.95821 20.5929C3.23607 20.8541 3.603 20.9997 3.98438 21H14.0156C14.3968 20.9999 14.7636 20.8548 15.0416 20.594C15.3196 20.3333 15.4879 19.9765 15.5123 19.5961L16.4531 4.875H18L17.9789 3ZM5.25 18L4.82812 6H6.375L6.79688 18H5.25ZM9.75 18H8.25V6H9.75V18ZM10.875 3H7.125V1.6875C7.125 1.63777 7.14475 1.59008 7.17992 1.55492C7.21508 1.51975 7.26277 1.5 7.3125 1.5H10.6875C10.7372 1.5 10.7849 1.51975 10.8201 1.55492C10.8552 1.59008 10.875 1.63777 10.875 1.6875V3ZM12.75 18H11.2031L11.625 6H13.1719L12.75 18Z" fill="#21272A"/>
</svg>
